# xmcd
#
# Track frame offsets:
#	150
#	14253
#	36975
#	55966
#	77518
#	100559
#	120041
#	142513
#	164708
#	181134
#	202216
#	223172
#	245955
#	267404
#	285593
#	309121
#
# Disc length: 4475 seconds
#
# Revision: 1
# Processed by: cddbd v1.5.1PL0 Copyright (c) Steve Scherf et al.
# Submitted via: CDex 1.50Beta5
#
DISCID=db117910
DTITLE=サザンオールスターズ - 箪曲集二
DYEAR=1900
DGENRE=Pop
TTITLE0=東京シャッフル
TTITLE1=ミス・ブランニューデイ
TTITLE2=Tarako
TTITLE3=Bye Bye Bye Love
TTITLE4=メロディ
TTITLE5=みんなのうた
TTITLE6=女神たちへの情歌
TTITLE7=さよならベイビー
TTITLE8=フリフリ‘65
TTITLE9=真夏の果実
TTITLE10=ネオ・ブラボー!!
TTITLE11=シュラバ☆ラ☆バンバ
TTITLE12=涙のキッス
TTITLE13=エロティカ・セブン
TTITLE14=素敵なバーディー
TTITLE15=・ラブ
EXTD=
EXTT0=
EXTT1=
EXTT2=
EXTT3=
EXTT4=
EXTT5=
EXTT6=
EXTT7=
EXTT8=
EXTT9=
EXTT10=
EXTT11=
EXTT12=
EXTT13=
EXTT14=
EXTT15=
PLAYORDER=
